# xmcd
# 
# Track frame offsets:
#     150
#     24537
#     45057
#     66855
#     84050
#     105205
#     127312
#     149737
#     167430
#     196652
#     216777
# 
# Disc length: 3200
# 
# Revision: 4
# Processed by: cddbd v1.5.2PL0 Copyright (c) Steve Scherf et al.
# Submitted via: BonkEnc v1.0.6
# 
DISCID=890c7e0b
DTITLE=London Symphony Orchestra - Classic Rock Countdown
DYEAR=1987
DGENRE=
TTITLE0=The Final Countdown
TTITLE1=Take My Breath Away
TTITLE2=You Can Call Me Al
TTITLE3=Lady In Red
TTITLE4=Seperate Lives
TTITLE5=We Don't Need Another Hero
TTITLE6=It's A Sin
TTITLE7=She's Not There
TTITLE8=Don't Give Up
TTITLE9=You're The Voice
TTITLE10=Abbey Road Medley
EXTD=
EXTT0=
EXTT1=
EXTT2=
EXTT3=
EXTT4=
EXTT5=
EXTT6=
EXTT7=
EXTT8=
EXTT9=
EXTT10=
PLAYORDER=
